<svg xmlns="http://www.w3.org/2000/svg" xmlns:xlink="http://www.w3.org/1999/xlink" viewBox="0 0 261 23">
  <defs>
    <symbol id="a" overflow="visible">
      <path d="M4.25-6.046875c.078125-.28125.109375-.34375.234375-.375.09375-.015625.421875-.015625.625-.015625 1.015625 0 1.453125.03125 1.453125.8125 0 .15625-.03125.546875-.078125.796875 0 .046875-.03125.15625-.03125.1875 0 .0625.03125.140625.125.140625.109375 0 .125-.078125.15625-.234375L7-6.46875c.015625-.046875.015625-.140625.015625-.171875C7.015625-6.75 6.921875-6.75 6.75-6.75H1.21875c-.234375 0-.25.015625-.328125.203125l-.59375 1.75c0 .015625-.0625.15625-.0625.1875 0 .046875.0625.109375.125.109375.09375 0 .109375-.0625.171875-.21875.53125-1.546875.796875-1.71875 2.265625-1.71875H3.1875c.28125 0 .28125.03125.28125.125 0 .046875-.03125.171875-.046875.203125L2.09375-.78125C2-.421875 1.96875-.3125.90625-.3125c-.359375 0-.421875 0-.421875.1875C.484375 0 .59375 0 .65625 0c.265625 0 .546875-.015625.8125-.015625.28125 0 .578125-.015625.859375-.015625s.546875.015625.828125.015625S3.734375 0 4.015625 0c.09375 0 .21875 0 .21875-.203125 0-.109375-.078125-.109375-.34375-.109375-.234375 0-.375 0-.625-.015625-.296875-.03125-.375-.0625-.375-.21875 0-.015625 0-.0625.046875-.203125zm0 0"/>
    </symbol>
    <symbol id="b" overflow="visible">
      <path d="M4.671875-2.71875c0-1.046875-.6875-1.6875-1.59375-1.6875C1.75-4.40625.40625-2.984375.40625-1.578125c0 .984375.671875 1.6875 1.59375 1.6875 1.328125 0 2.671875-1.375 2.671875-2.828125zM2.015625-.109375c-.4375 0-.875-.3125-.875-1.09375 0-.484375.265625-1.5625.578125-2.0625.5-.765625 1.078125-.921875 1.359375-.921875.578125 0 .875.484375.875 1.078125 0 .390625-.203125 1.4375-.578125 2.078125-.359375.578125-.90625.921875-1.359375.921875zm0 0"/>
    </symbol>
    <symbol id="c" overflow="visible">
      <path d="M2.046875-3.984375h.9375c.203125 0 .3125 0 .3125-.203125 0-.109375-.109375-.109375-.28125-.109375h-.875C2.5-5.71875 2.546875-5.90625 2.546875-5.96875c0-.171875-.125-.265625-.296875-.265625-.03125 0-.3125 0-.390625.359375L1.46875-4.296875h-.9375c-.203125 0-.296875 0-.296875.1875 0 .125.078125.125.28125.125h.875C.671875-1.15625.625-.984375.625-.8125c0 .546875.375.921875.921875.921875C2.5625.109375 3.125-1.34375 3.125-1.421875c0-.109375-.078125-.109375-.109375-.109375-.09375 0-.109375.03125-.15625.140625C2.4375-.34375 1.90625-.109375 1.5625-.109375c-.203125 0-.3125-.125-.3125-.453125 0-.25.03125-.3125.0625-.484375zm0 0"/>
    </symbol>
    <symbol id="d" overflow="visible">
      <path d="M3.71875-3.765625c-.1875-.375-.46875-.640625-.921875-.640625-1.15625 0-2.390625 1.46875-2.390625 2.921875 0 .9375.546875 1.59375 1.3125 1.59375.203125 0 .703125-.046875 1.296875-.75.078125.421875.4375.75.90625.75.359375 0 .578125-.234375.75-.546875.15625-.359375.296875-.96875.296875-.984375 0-.109375-.09375-.109375-.125-.109375-.09375 0-.109375.046875-.140625.1875-.171875.640625-.34375 1.234375-.75 1.234375-.28125 0-.296875-.265625-.296875-.453125 0-.21875.015625-.3125.125-.75.109375-.40625.125-.515625.21875-.890625l.359375-1.390625c.0625-.28125.0625-.296875.0625-.34375 0-.171875-.109375-.265625-.28125-.265625-.25 0-.390625.21875-.421875.4375zM3.078125-1.1875c-.0625.1875-.0625.203125-.203125.375-.4375.546875-.84375.703125-1.125.703125-.5 0-.640625-.546875-.640625-.9375 0-.5.3125-1.71875.546875-2.1875.3125-.578125.75-.953125 1.15625-.953125.640625 0 .78125.8125.78125.875s-.015625.125-.03125.171875zm0 0"/>
    </symbol>
    <symbol id="e" overflow="visible">
      <path d="M2.578125-6.8125s0-.109375-.140625-.109375c-.21875 0-.953125.078125-1.21875.109375-.078125 0-.1875.015625-.1875.203125 0 .109375.109375.109375.25.109375.484375 0 .5.09375.5.171875L1.75-6.125.484375-1.140625C.453125-1.03125.4375-.96875.4375-.8125c0 .578125.4375.921875.90625.921875.328125 0 .578125-.203125.75-.5625.171875-.375.296875-.953125.296875-.96875 0-.109375-.09375-.109375-.125-.109375-.09375 0-.109375.046875-.125.1875C1.96875-.703125 1.78125-.109375 1.375-.109375c-.296875 0-.296875-.3125-.296875-.453125 0-.25.015625-.296875.0625-.484375zm0 0"/>
    </symbol>
    <symbol id="f" overflow="visible">
      <path d="M6.4375-6.921875c0-.03125-.03125-.109375-.125-.109375-.046875 0-.046875.015625-.171875.15625l-.484375.5625c-.25-.46875-.765625-.71875-1.421875-.71875-1.265625 0-2.453125 1.15625-2.453125 2.359375 0 .796875.515625 1.265625 1.03125 1.40625l1.0625.28125c.375.09375.921875.25.921875 1.0625C4.796875-1.03125 3.984375-.09375 3-.09375c-.640625 0-1.75-.21875-1.75-1.453125 0-.234375.0625-.484375.0625-.53125.015625-.046875.015625-.0625.015625-.078125 0-.09375-.0625-.109375-.109375-.109375s-.078125.015625-.109375.046875S.515625.09375.515625.125c0 .046875.046875.09375.109375.09375.046875 0 .0625-.015625.1875-.15625L1.296875-.5c.421875.578125 1.109375.71875 1.6875.71875 1.359375 0 2.53125-1.328125 2.53125-2.5625 0-.6875-.34375-1.03125-.484375-1.171875C4.796875-3.734375 4.640625-3.78125 3.765625-4c-.234375-.0625-.578125-.171875-.671875-.1875-.265625-.09375-.609375-.375-.609375-.90625 0-.8125.796875-1.65625 1.75-1.65625.8125 0 1.421875.4375 1.421875 1.546875 0 .3125-.03125.5-.03125.5625 0 0 0 .09375.109375.09375s.125-.03125.15625-.203125zm0 0"/>
    </symbol>
    <symbol id="g" overflow="visible">
      <path d="M3.953125-3.78125c-.171875 0-.296875 0-.4375.125-.171875.15625-.1875.328125-.1875.390625 0 .25.1875.359375.375.359375.28125 0 .546875-.25.546875-.640625 0-.484375-.46875-.859375-1.171875-.859375-1.34375 0-2.671875 1.421875-2.671875 2.828125 0 .90625.578125 1.6875 1.625 1.6875 1.421875 0 2.25-1.0625 2.25-1.171875 0-.0625-.046875-.140625-.109375-.140625s-.078125.03125-.140625.109375c-.78125.984375-1.875.984375-1.984375.984375-.625 0-.90625-.484375-.90625-1.09375 0-.40625.203125-1.375.546875-1.984375.3125-.578125.859375-1 1.40625-1 .328125 0 .71875.125.859375.40625zm0 0"/>
    </symbol>
    <symbol id="h" overflow="visible">
      <path d="M.875-.59375c-.03125.15625-.09375.390625-.09375.4375 0 .171875.140625.265625.296875.265625.125 0 .296875-.078125.375-.28125.015625-.03125.34375-1.390625.390625-1.578125.078125-.328125.265625-1.015625.3125-1.296875.046875-.125.328125-.59375.5625-.8125.078125-.0625.375-.328125.796875-.328125.265625 0 .40625.125.421875.125-.296875.046875-.515625.28125-.515625.546875 0 .15625.109375.34375.375.34375s.546875-.234375.546875-.59375c0-.34375-.3125-.640625-.828125-.640625-.640625 0-1.078125.484375-1.265625.765625-.09375-.453125-.453125-.765625-.921875-.765625-.453125 0-.640625.390625-.734375.5625C.421875-3.5.296875-2.90625.296875-2.875c0 .109375.09375.109375.109375.109375.109375 0 .109375-.015625.171875-.234375.171875-.703125.375-1.1875.734375-1.1875.15625 0 .296875.078125.296875.453125 0 .21875-.03125.328125-.15625.84375zm0 0"/>
    </symbol>
    <symbol id="i" overflow="visible">
      <path d="M1.859375-2.296875c.296875 0 1.03125-.03125 1.53125-.234375.703125-.296875.75-.890625.75-1.03125 0-.4375-.375-.84375-1.0625-.84375-1.109375 0-2.625.96875-2.625 2.71875 0 1.015625.59375 1.796875 1.578125 1.796875 1.421875 0 2.25-1.0625 2.25-1.171875 0-.0625-.046875-.140625-.109375-.140625s-.078125.03125-.140625.109375c-.78125.984375-1.875.984375-1.984375.984375-.78125 0-.875-.84375-.875-1.15625 0-.125.015625-.421875.15625-1.03125zm-.46875-.21875C1.78125-4.03125 2.8125-4.1875 3.078125-4.1875c.453125 0 .734375.296875.734375.625 0 1.046875-1.59375 1.046875-2.015625 1.046875zm0 0"/>
    </symbol>
    <symbol id="t" overflow="visible">
      <path d="M4.609375-3.375C4.65625-3.59375 4.75-3.96875 4.75-4.03125c0-.171875-.140625-.265625-.28125-.265625-.125 0-.296875.078125-.375.28125-.03125.0625-.5 1.96875-.5625 2.234375-.078125.296875-.09375.46875-.09375.65625 0 .109375 0 .125.015625.171875-.234375.53125-.53125.84375-.921875.84375-.796875 0-.796875-.734375-.796875-.90625 0-.3125.046875-.703125.515625-1.9375.109375-.296875.171875-.4375.171875-.640625 0-.4375-.328125-.8125-.8125-.8125-.953125 0-1.3125 1.453125-1.3125 1.53125 0 .109375.09375.109375.109375.109375.109375 0 .109375-.03125.15625-.1875C.84375-3.875 1.21875-4.1875 1.578125-4.1875c.09375 0 .25.015625.25.328125 0 .25-.109375.53125-.1875.703125-.4375 1.171875-.546875 1.625-.546875 2.015625 0 .90625.65625 1.25 1.40625 1.25.171875 0 .640625 0 1.03125-.703125.265625.640625.953125.703125 1.25.703125.75 0 1.1875-.625 1.453125-1.21875.328125-.78125.65625-2.125.65625-2.59375 0-.546875-.265625-.703125-.4375-.703125-.25 0-.5.265625-.5.484375 0 .125.0625.1875.140625.265625.109375.109375.359375.359375.359375.84375 0 .34375-.28125 1.3125-.546875 1.828125-.25.53125-.609375.875-1.09375.875-.46875 0-.734375-.296875-.734375-.875 0-.265625.0625-.578125.109375-.71875zm0 0"/>
    </symbol>
    <symbol id="u" overflow="visible">
      <path d="M2.828125-6.234375c0-.203125-.140625-.359375-.359375-.359375-.28125 0-.546875.265625-.546875.53125 0 .1875.140625.359375.375.359375s.53125-.234375.53125-.53125zm-.75 3.75c.109375-.28125.109375-.3125.21875-.578125.078125-.203125.125-.34375.125-.53125 0-.4375-.3125-.8125-.8125-.8125-.9375 0-1.3125 1.453125-1.3125 1.53125 0 .109375.09375.109375.109375.109375.109375 0 .109375-.03125.15625-.1875.28125-.9375.671875-1.234375 1.015625-1.234375.078125 0 .25 0 .25.3125 0 .21875-.078125.421875-.109375.53125-.078125.25-.53125 1.40625-.6875 1.84375-.109375.25-.234375.578125-.234375.796875 0 .46875.34375.8125.8125.8125.9375 0 1.3125-1.4375 1.3125-1.53125 0-.109375-.09375-.109375-.125-.109375-.09375 0-.09375.03125-.140625.1875-.1875.625-.515625 1.234375-1.015625 1.234375-.171875 0-.25-.09375-.25-.328125 0-.25.0625-.390625.296875-1zm0 0"/>
    </symbol>
    <symbol id="v" overflow="visible">
      <path d="M4.6875-3.765625c.015625-.046875.03125-.109375.03125-.171875 0-.171875-.109375-.265625-.28125-.265625-.09375 0-.375.0625-.40625.421875-.1875-.359375-.53125-.625-.9375-.625-1.125 0-2.359375 1.390625-2.359375 2.828125C.734375-.59375 1.328125 0 2.046875 0c.59375 0 1.0625-.46875 1.15625-.578125L3.21875-.5625C3.015625.3125 2.890625.734375 2.890625.75c-.046875.09375-.375 1.078125-1.4375 1.078125-.1875 0-.515625-.015625-.796875-.109375.296875-.078125.40625-.34375.40625-.515625 0-.15625-.109375-.34375-.375-.34375-.21875 0-.53125.171875-.53125.578125s.359375.609375 1.3125.609375c1.25 0 1.96875-.78125 2.125-1.375zM3.40625-1.28125c-.0625.265625-.296875.515625-.515625.703125-.203125.171875-.515625.359375-.8125.359375-.5 0-.640625-.515625-.640625-.921875 0-.46875.28125-1.65625.5625-2.15625.265625-.484375.6875-.890625 1.109375-.890625.65625 0 .796875.8125.796875.859375s-.015625.109375-.03125.140625zm0 0"/>
    </symbol>
    <symbol id="w" overflow="visible">
      <path d="M2.859375-6.8125s0-.109375-.125-.109375c-.234375 0-.953125.078125-1.21875.109375-.078125 0-.1875.015625-.1875.1875 0 .125.09375.125.234375.125.484375 0 .5.0625.5.171875L2.03125-6.125.59375-.390625C.546875-.25.546875-.234375.546875-.171875c0 .234375.203125.28125.296875.28125.15625 0 .3125-.125.359375-.265625l.1875-.75.21875-.890625c.0625-.234375.125-.453125.171875-.671875.015625-.0625.109375-.390625.109375-.453125.03125-.09375.34375-.640625.6875-.921875.21875-.15625.515625-.34375.953125-.34375.421875 0 .53125.34375.53125.703125 0 .53125-.375 1.625-.609375 2.234375-.078125.21875-.140625.34375-.140625.546875 0 .46875.359375.8125.828125.8125.9375 0 1.296875-1.453125 1.296875-1.53125 0-.109375-.078125-.109375-.109375-.109375-.109375 0-.109375.03125-.15625.1875C5.03125-.8125 4.703125-.109375 4.15625-.109375c-.171875 0-.234375-.09375-.234375-.328125 0-.25.078125-.484375.171875-.703125.15625-.4375.609375-1.625.609375-2.203125 0-.640625-.390625-1.0625-1.140625-1.0625-.625 0-1.109375.3125-1.484375.765625zm0 0"/>
    </symbol>
    <symbol id="B" overflow="visible">
      <path d="M9.234375-6.046875C9.328125-6.40625 9.34375-6.5 10.09375-6.5c.21875 0 .3125 0 .3125-.203125 0-.109375-.09375-.109375-.265625-.109375h-1.3125c-.265625 0-.28125 0-.390625.1875L4.796875-.9375l-.78125-5.640625c-.03125-.234375-.046875-.234375-.3125-.234375H2.34375c-.1875 0-.296875 0-.296875.1875 0 .125.09375.125.28125.125.140625 0 .3125.015625.4375.015625.15625.03125.21875.046875.21875.171875 0 .03125-.015625.0625-.046875.1875L1.671875-1.0625c-.09375.40625-.265625.71875-1.078125.75-.046875 0-.171875.015625-.171875.1875 0 .09375.0625.125.140625.125.3125 0 .65625-.03125 1-.03125C1.890625-.03125 2.25 0 2.578125 0c.046875 0 .1875 0 .1875-.203125 0-.109375-.109375-.109375-.1875-.109375-.5625 0-.671875-.203125-.671875-.4375 0-.0625 0-.125.03125-.234375L3.296875-6.40625H3.3125l.859375 6.171875C4.1875-.109375 4.203125 0 4.3125 0s.171875-.109375.21875-.171875l4.03125-6.3125h.015625L7.140625-.78125c-.09375.390625-.109375.46875-.90625.46875-.15625 0-.265625 0-.265625.1875 0 .125.109375.125.140625.125.28125 0 .953125-.03125 1.234375-.03125C7.75-.03125 8.1875 0 8.59375 0c.0625 0 .1875 0 .1875-.203125C8.78125-.3125 8.6875-.3125 8.5-.3125c-.359375 0-.640625 0-.640625-.171875 0-.046875 0-.0625.046875-.25zm0 0"/>
    </symbol>
    <symbol id="C" overflow="visible">
      <path d="M3.328125-3.015625c.0625-.25.296875-1.171875.984375-1.171875.046875 0 .296875 0 .5.125-.28125.0625-.46875.296875-.46875.546875 0 .15625.109375.34375.375.34375.21875 0 .53125-.171875.53125-.578125 0-.515625-.578125-.65625-.921875-.65625-.578125 0-.921875.53125-1.046875.75-.25-.65625-.78125-.75-1.078125-.75C1.171875-4.40625.59375-3.125.59375-2.875c0 .109375.109375.109375.125.109375.078125 0 .109375-.03125.125-.109375.34375-1.0625 1-1.3125 1.34375-1.3125.1875 0 .53125.09375.53125.671875 0 .3125-.171875.96875-.53125 2.375-.15625.609375-.515625 1.03125-.953125 1.03125-.0625 0-.28125 0-.5-.125.25-.0625.46875-.265625.46875-.546875 0-.265625-.21875-.34375-.359375-.34375-.3125 0-.546875.25-.546875.578125 0 .453125.484375.65625.921875.65625.671875 0 1.03125-.703125 1.046875-.75.125.359375.484375.75 1.078125.75 1.03125 0 1.59375-1.28125 1.59375-1.53125 0-.109375-.078125-.109375-.109375-.109375-.09375 0-.109375.046875-.140625.109375-.328125 1.078125-1 1.3125-1.3125 1.3125-.390625 0-.546875-.3125-.546875-.65625 0-.21875.046875-.4375.15625-.875zm0 0"/>
    </symbol>
    <symbol id="j" overflow="visible">
      <path d="M6.84375-3.265625c.15625 0 .34375 0 .34375-.1875 0-.203125-.1875-.203125-.328125-.203125H.890625c-.140625 0-.328125 0-.328125.203125 0 .1875.1875.1875.328125.1875zm.015625 1.9375c.140625 0 .328125 0 .328125-.203125 0-.1875-.1875-.1875-.34375-.1875H.890625c-.140625 0-.328125 0-.328125.1875 0 .203125.1875.203125.328125.203125zm0 0"/>
    </symbol>
    <symbol id="y" overflow="visible">
      <path d="M3.296875 2.390625c0-.03125 0-.046875-.171875-.21875C1.890625.921875 1.5625-.96875 1.5625-2.5c0-1.734375.375-3.46875 1.609375-4.703125.125-.125.125-.140625.125-.171875 0-.078125-.03125-.109375-.09375-.109375-.109375 0-1 .6875-1.59375 1.953125-.5 1.09375-.625 2.203125-.625 3.03125 0 .78125.109375 1.984375.65625 3.125C2.25 1.84375 3.09375 2.5 3.203125 2.5c.0625 0 .09375-.03125.09375-.109375zm0 0"/>
    </symbol>
    <symbol id="A" overflow="visible">
      <path d="M2.875-2.5c0-.765625-.109375-1.96875-.65625-3.109375-.59375-1.21875-1.453125-1.875-1.546875-1.875-.0625 0-.109375.046875-.109375.109375 0 .03125 0 .046875.1875.234375.984375.984375 1.546875 2.5625 1.546875 4.640625 0 1.71875-.359375 3.46875-1.59375 4.71875-.140625.125-.140625.140625-.140625.171875 0 .0625.046875.109375.109375.109375.09375 0 1-.6875 1.578125-1.953125.515625-1.09375.625-2.203125.625-3.046875zm0 0"/>
    </symbol>
    <symbol id="k" overflow="visible">
      <path d="M4.203125 5.328125l-3.546875 4.375c-.078125.09375-.09375.109375-.09375.15625 0 .109375.09375.109375.28125.109375h8.25l.859375-2.484375h-.25c-.25.75-.90625 1.359375-1.765625 1.640625-.15625.0625-.84375.296875-2.3125.296875H1.390625l3.46875-4.28125c.0625-.09375.078125-.109375.078125-.15625s0-.046875-.0625-.140625L1.640625.40625h3.9375c1.140625 0 3.4375.0625 4.125 1.921875h.25L9.09375 0h-8.25C.5625 0 .5625.015625.5625.3125zm0 0"/>
    </symbol>
    <symbol id="l" overflow="visible">
      <path d="M4.953125-4.8125c0-.03125-.03125-.09375-.09375-.09375-.046875 0-.046875.015625-.140625.109375L4.375-4.40625c-.265625-.375-.703125-.5-1.125-.5-.984375 0-1.859375.796875-1.859375 1.609375 0 .09375.03125.375.234375.640625.234375.265625.5.328125.96875.453125.140625.03125.484375.109375.59375.140625.21875.046875.640625.203125.640625.71875 0 .5625-.59375 1.234375-1.375 1.234375-.625 0-1.359375-.21875-1.359375-.984375 0-.078125.015625-.234375.046875-.359375v-.03125c0-.09375-.078125-.09375-.109375-.09375-.09375 0-.109375.015625-.125.140625L.546875-.046875c-.015625.03125-.03125.0625-.03125.109375 0 .03125.03125.078125.109375.078125.03125 0 .046875-.015625.140625-.09375.078125-.09375.25-.3125.328125-.390625.375.40625.90625.484375 1.328125.484375 1.0625 0 1.90625-.90625 1.90625-1.734375 0-.296875-.125-.578125-.28125-.734375-.234375-.25-.34375-.28125-1.25-.5-.140625-.03125-.375-.078125-.4375-.109375-.171875-.0625-.46875-.234375-.46875-.625 0-.5625.625-1.109375 1.34375-1.109375.765625 0 1.125.421875 1.125 1.078125 0 .09375-.03125.25-.03125.3125 0 .109375.078125.109375.125.109375.09375 0 .109375-.046875.125-.15625zm0 0"/>
    </symbol>
    <symbol id="m" overflow="visible">
      <path d="M1.5625-1.59375c.1875 0 .75-.015625 1.125-.140625.515625-.1875.609375-.515625.609375-.71875 0-.390625-.390625-.625-.859375-.625-.84375 0-1.96875.640625-1.96875 1.84375 0 .703125.4375 1.296875 1.25 1.296875 1.1875 0 1.734375-.6875 1.734375-.78125 0-.046875-.0625-.125-.125-.125-.03125 0-.046875.015625-.109375.078125C2.671875-.125 1.859375-.125 1.734375-.125c-.421875 0-.703125-.28125-.703125-.84375 0-.09375 0-.234375.09375-.625zm-.390625-.1875C1.46875-2.796875 2.234375-2.875 2.4375-2.875c.296875 0 .5625.15625.5625.421875 0 .671875-1.1875.671875-1.484375.671875zm0 0"/>
    </symbol>
    <symbol id="n" overflow="visible">
      <path d="M3.046875-2.671875c-.25.046875-.34375.234375-.34375.390625 0 .1875.140625.265625.265625.265625.15625 0 .390625-.109375.390625-.453125 0-.46875-.53125-.609375-.90625-.609375-1.046875 0-2.015625.96875-2.015625 1.9375C.4375-.546875.84375.0625 1.71875.0625c1.1875 0 1.734375-.6875 1.734375-.78125 0-.046875-.0625-.125-.125-.125-.03125 0-.046875.015625-.109375.078125C2.671875-.125 1.859375-.125 1.734375-.125c-.5 0-.71875-.34375-.71875-.78125 0-.1875.09375-.953125.453125-1.4375.265625-.34375.625-.53125.984375-.53125.09375 0 .421875.015625.59375.203125zm0 0"/>
    </symbol>
    <symbol id="o" overflow="visible">
      <path d="M1.71875-2.75h.703125c.140625 0 .21875 0 .21875-.15625C2.640625-3 2.5625-3 2.4375-3h-.65625l.25-1.03125c.015625-.03125.03125-.078125.03125-.09375 0-.140625-.109375-.234375-.25-.234375-.171875 0-.265625.125-.328125.296875C1.4375-3.875 1.53125-4.21875 1.21875-3H.515625c-.125 0-.21875 0-.21875.15625C.296875-2.75.375-2.75.5-2.75h.65625L.75-1.109375C.703125-.9375.640625-.6875.640625-.59375c0 .40625.359375.65625.75.65625.78125 0 1.21875-.96875 1.21875-1.0625S2.515625-1.09375 2.5-1.09375c-.09375 0-.09375.015625-.15625.140625-.1875.4375-.546875.828125-.921875.828125-.15625 0-.25-.09375-.25-.34375 0-.0625.03125-.21875.046875-.28125zm0 0"/>
    </symbol>
    <symbol id="p" overflow="visible">
      <path d="M2.265625-4.359375c0-.109375-.09375-.265625-.28125-.265625s-.390625.1875-.390625.390625c0 .109375.078125.265625.28125.265625.1875 0 .390625-.203125.390625-.390625zM.84375-.8125c-.03125.09375-.0625.171875-.0625.296875 0 .328125.265625.578125.65625.578125.6875 0 1-.953125 1-1.0625 0-.09375-.09375-.09375-.109375-.09375-.09375 0-.109375.046875-.140625.125-.15625.5625-.453125.84375-.734375.84375-.140625 0-.171875-.09375-.171875-.25s.046875-.28125.109375-.4375c.078125-.1875.15625-.375.21875-.5625.0625-.171875.328125-.796875.34375-.890625C1.984375-2.328125 2-2.40625 2-2.484375c0-.328125-.28125-.59375-.65625-.59375C.640625-3.078125.328125-2.125.328125-2c0 .078125.09375.078125.125.078125.09375 0 .09375-.03125.125-.109375C.75-2.625 1.0625-2.875 1.3125-2.875c.109375 0 .171875.046875.171875.234375 0 .171875-.03125.265625-.203125.703125zm0 0"/>
    </symbol>
    <symbol id="q" overflow="visible">
      <path d="M3.703125-1.859375c0-.765625-.578125-1.21875-1.265625-1.21875-1.03125 0-2 .96875-2 1.921875 0 .703125.5 1.21875 1.265625 1.21875 1 0 2-.90625 2-1.921875zm-2 1.734375c-.34375 0-.6875-.21875-.6875-.78125 0-.28125.125-.96875.40625-1.359375C1.71875-2.703125 2.125-2.875 2.4375-2.875c.375 0 .6875.25.6875.765625 0 .171875-.078125.859375-.390625 1.34375C2.46875-.34375 2.0625-.125 1.703125-.125zm0 0"/>
    </symbol>
    <symbol id="r" overflow="visible">
      <path d="M.84375-.4375c-.015625.09375-.0625.265625-.0625.28125 0 .15625.125.21875.234375.21875.125 0 .234375-.078125.28125-.140625.03125-.0625.078125-.296875.125-.4375.03125-.125.109375-.453125.140625-.625.046875-.15625.09375-.3125.125-.46875.078125-.28125.09375-.34375.296875-.625C2.171875-2.515625 2.5-2.875 3.03125-2.875c.390625 0 .40625.359375.40625.484375 0 .421875-.296875 1.1875-.40625 1.484375-.078125.203125-.109375.265625-.109375.375 0 .375.296875.59375.65625.59375.703125 0 1-.953125 1-1.0625 0-.09375-.078125-.09375-.109375-.09375-.09375 0-.09375.046875-.125.125-.15625.5625-.46875.84375-.734375.84375-.15625 0-.1875-.09375-.1875-.25s.046875-.25.171875-.5625c.078125-.21875.359375-.953125.359375-1.34375 0-.671875-.53125-.796875-.90625-.796875-.578125 0-.96875.359375-1.171875.640625-.046875-.484375-.453125-.640625-.75-.640625s-.453125.21875-.546875.375c-.15625.265625-.25.65625-.25.703125 0 .078125.09375.078125.125.078125.09375 0 .09375-.015625.140625-.203125.109375-.40625.25-.75.515625-.75.1875 0 .234375.15625.234375.34375 0 .125-.0625.390625-.125.578125-.046875.1875-.109375.46875-.140625.625zm0 0"/>
    </symbol>
    <symbol id="s" overflow="visible">
      <path d="M3-2.625c-.171875.046875-.296875.1875-.296875.328125 0 .171875.140625.234375.234375.234375.078125 0 .34375-.046875.34375-.40625 0-.453125-.5-.609375-.9375-.609375-1.078125 0-1.28125.8125-1.28125 1.015625 0 .265625.15625.4375.25.515625.171875.140625.296875.171875.78125.25.15625.03125.59375.109375.59375.453125 0 .125-.078125.390625-.359375.5625-.28125.15625-.625.15625-.703125.15625-.28125 0-.671875-.0625-.84375-.296875.234375-.03125.390625-.203125.390625-.390625 0-.171875-.125-.265625-.265625-.265625C.703125-1.078125.5-.90625.5-.609375.5-.1875.9375.0625 1.609375.0625c1.296875 0 1.53125-.875 1.53125-1.140625 0-.640625-.703125-.765625-.96875-.8125-.0625-.015625-.234375-.046875-.28125-.0625-.25-.046875-.375-.1875-.375-.34375s.125-.34375.28125-.453125c.1875-.109375.421875-.125.546875-.125.140625 0 .5.015625.65625.25zm0 0"/>
    </symbol>
    <symbol id="z" overflow="visible">
      <path d="M3.390625-4.21875c.046875-.203125.0625-.21875.21875-.234375h.40625c.4375 0 .609375 0 .78125.046875.3125.09375.328125.296875.328125.546875 0 .109375 0 .203125-.046875.5625L5.0625-3.21875c0 .078125.046875.109375.125.109375.109375 0 .109375-.0625.125-.171875L5.5-4.609375c0-.09375-.078125-.09375-.203125-.09375h-4.28125c-.171875 0-.1875 0-.234375.140625L.328125-3.328125c0 .03125-.03125.09375-.03125.125s.015625.09375.125.09375c.09375 0 .09375-.03125.140625-.171875.40625-1.109375.640625-1.171875 1.703125-1.171875h.28125c.21875 0 .21875 0 .21875.0625 0 0 0 .046875-.03125.140625L1.8125-.578125C1.75-.328125 1.734375-.25 1-.25c-.25 0-.3125 0-.3125.15625C.6875-.078125.703125 0 .8125 0 1 0 1.21875-.015625 1.40625-.015625c.203125 0 .40625-.015625.59375-.015625.203125 0 .4375 0 .640625.015625.1875 0 .390625.015625.578125.015625.0625 0 .15625 0 .15625-.15625C3.375-.25 3.3125-.25 3.09375-.25c-.125 0-.265625-.015625-.40625-.015625-.234375-.015625-.25-.046875-.25-.125 0-.0625 0-.0625.03125-.171875zm0 0"/>
    </symbol>
    <symbol id="x" overflow="visible">
      <path d="M3.875-2.765625L1.890625-4.75c-.125-.125-.140625-.140625-.21875-.140625-.109375 0-.203125.078125-.203125.203125 0 .0625.015625.078125.125.1875l2 2-2 2.015625c-.109375.109375-.125.125-.125.1875 0 .125.09375.203125.203125.203125.078125 0 .09375-.015625.21875-.140625L3.875-2.21875l2.0625 2.0625c.015625.015625.078125.0625.140625.0625.125 0 .203125-.078125.203125-.203125 0-.015625 0-.046875-.03125-.109375C6.234375-.421875 4.65625-1.984375 4.15625-2.5l1.828125-1.8125c.046875-.0625.203125-.1875.25-.25 0-.015625.046875-.0625.046875-.125 0-.125-.078125-.203125-.203125-.203125-.078125 0-.109375.03125-.21875.140625zm0 0"/>
    </symbol>
  </defs>
  <use x="-.166016" y="15.07383" xlink:href="#a"/>
  <use x="7.04297" y="15.07383" xlink:href="#b"/>
  <use x="11.87597" y="15.07383" xlink:href="#c"/>
  <use x="15.47597" y="15.07383" xlink:href="#d"/>
  <use x="20.74097" y="15.07383" xlink:href="#e"/>
  <use x="23.908988" y="15.07383" xlink:href="#f"/>
  <use x="30.596097" y="15.07383" xlink:href="#g"/>
  <use x="34.907095" y="15.07383" xlink:href="#b"/>
  <use x="39.740097" y="15.07383" xlink:href="#h"/>
  <use x="44.510161" y="15.07383" xlink:href="#i"/>
  <use x="51.908184" y="15.07383" xlink:href="#j"/>
  <use x="63.617184" y=".72813" xlink:href="#k"/>
  <use x="74.128884" y="11.18593" xlink:href="#l"/>
  <use x="79.402715" y="11.18593" xlink:href="#m"/>
  <use x="83.182542" y="11.18593" xlink:href="#n"/>
  <use x="86.746542" y="11.18593" xlink:href="#o"/>
  <use x="89.752271" y="11.18593" xlink:href="#p"/>
  <use x="92.569706" y="11.18593" xlink:href="#q"/>
  <use x="96.50271" y="11.18593" xlink:href="#r"/>
  <use x="101.425711" y="11.18593" xlink:href="#s"/>
  <use x="107.347984" y="8.19804" xlink:href="#t"/>
  <use x="114.746027" y="8.19804" xlink:href="#i"/>
  <use x="119.381023" y="8.19804" xlink:href="#u"/>
  <use x="122.810027" y="8.19804" xlink:href="#v"/>
  <use x="127.922202" y="8.19804" xlink:href="#w"/>
  <use x="133.66421" y="8.19804" xlink:href="#c"/>
  <use x="137.263984" y="9.69218" xlink:href="#s"/>
  <use x="141.02599" y="9.69218" xlink:href="#m"/>
  <use x="144.805816" y="9.69218" xlink:href="#n"/>
  <use x="148.369804" y="9.69218" xlink:href="#o"/>
  <use x="151.375534" y="9.69218" xlink:href="#p"/>
  <use x="154.192969" y="9.69218" xlink:href="#q"/>
  <use x="158.12596" y="9.69218" xlink:href="#r"/>
  <use x="165.767084" y="8.19804" xlink:href="#x"/>
  <use x="175.729974" y="8.19804" xlink:href="#y"/>
  <use x="179.599894" y=".72812" xlink:href="#k"/>
  <use x="190.120994" y="11.18592" xlink:href="#z"/>
  <use x="195.899115" y="11.18592" xlink:href="#m"/>
  <use x="199.678941" y="11.18592" xlink:href="#s"/>
  <use x="203.440947" y="11.18592" xlink:href="#o"/>
  <use x="206.446676" y="11.18592" xlink:href="#s"/>
  <use x="212.368994" y="8.19803" xlink:href="#t"/>
  <use x="219.767037" y="8.19803" xlink:href="#i"/>
  <use x="224.402057" y="8.19803" xlink:href="#u"/>
  <use x="227.831037" y="8.19803" xlink:href="#v"/>
  <use x="232.943224" y="8.19803" xlink:href="#w"/>
  <use x="238.68522" y="8.19803" xlink:href="#c"/>
  <use x="242.284994" y="9.69217" xlink:href="#o"/>
  <use x="245.290723" y="9.69217" xlink:href="#m"/>
  <use x="249.07055" y="9.69217" xlink:href="#s"/>
  <use x="252.832531" y="9.69217" xlink:href="#o"/>
  <g>
    <use x="256.342794" y="8.19803" xlink:href="#A"/>
  </g>
  <path fill="none" stroke="#000" stroke-miterlimit="10" stroke-width=".405" d="M63.617188 12.578125h196.605468"/>
  <g>
    <use x="138.443" y="21.90508" xlink:href="#B"/>
  </g>
  <g>
    <use x="149.198078" y="21.90508" xlink:href="#d"/>
  </g>
  <g>
    <use x="154.463076" y="21.90508" xlink:href="#C"/>
  </g>
  <g>
    <use x="160.160069" y="21.90508" xlink:href="#f"/>
  </g>
  <g>
    <use x="166.846903" y="21.90508" xlink:href="#g"/>
  </g>
  <g>
    <use x="171.157905" y="21.90508" xlink:href="#b"/>
  </g>
  <g>
    <use x="175.990907" y="21.90508" xlink:href="#h"/>
  </g>
  <g>
    <use x="180.760974" y="21.90508" xlink:href="#i"/>
  </g>
</svg>
